<mxfile host="app.diagrams.net" modified="2022-03-09T07:03:12.899Z" agent="5.0 (Windows)" etag="T3ziFUXAfh-nx1G3zmFa" version="17.0.0" type="github">
  <diagram id="5ow5-ysIlqhQGtX3be3K" name="Page-1">
    <mxGraphModel dx="1245" dy="443" grid="1" gridSize="10" guides="1" tooltips="1" connect="1" arrows="1" fold="1" page="1" pageScale="1" pageWidth="850" pageHeight="1100" math="0" shadow="0">
      <root>
        <mxCell id="0" />
        <mxCell id="1" parent="0" />
        <mxCell id="eH2wP4lTHA7Jf0H31MhD-1" value="&lt;font style=&quot;font-size: 16px&quot;&gt;Has&lt;/font&gt;" style="edgeStyle=orthogonalEdgeStyle;rounded=0;orthogonalLoop=1;jettySize=auto;html=1;exitX=0.5;exitY=0;exitDx=0;exitDy=0;entryX=0.5;entryY=1;entryDx=0;entryDy=0;fontSize=24;strokeWidth=3;" edge="1" parent="1" source="eH2wP4lTHA7Jf0H31MhD-4" target="eH2wP4lTHA7Jf0H31MhD-5">
          <mxGeometry relative="1" as="geometry">
            <Array as="points">
              <mxPoint x="305" y="160" />
              <mxPoint x="305" y="160" />
            </Array>
          </mxGeometry>
        </mxCell>
        <mxCell id="eH2wP4lTHA7Jf0H31MhD-2" value="&lt;font style=&quot;font-size: 16px&quot;&gt;has&lt;/font&gt;" style="edgeStyle=orthogonalEdgeStyle;rounded=0;orthogonalLoop=1;jettySize=auto;html=1;exitX=0;exitY=0.5;exitDx=0;exitDy=0;entryX=0.5;entryY=0;entryDx=0;entryDy=0;fontSize=24;strokeWidth=3;" edge="1" parent="1" source="eH2wP4lTHA7Jf0H31MhD-4" target="eH2wP4lTHA7Jf0H31MhD-6">
          <mxGeometry x="-0.3571" relative="1" as="geometry">
            <mxPoint as="offset" />
          </mxGeometry>
        </mxCell>
        <mxCell id="eH2wP4lTHA7Jf0H31MhD-3" value="&lt;font style=&quot;font-size: 16px&quot;&gt;has&lt;/font&gt;" style="edgeStyle=orthogonalEdgeStyle;rounded=0;orthogonalLoop=1;jettySize=auto;html=1;exitX=1;exitY=0.5;exitDx=0;exitDy=0;entryX=0.5;entryY=0;entryDx=0;entryDy=0;fontSize=24;strokeWidth=3;" edge="1" parent="1" source="eH2wP4lTHA7Jf0H31MhD-4" target="eH2wP4lTHA7Jf0H31MhD-7">
          <mxGeometry x="-0.3846" relative="1" as="geometry">
            <mxPoint as="offset" />
          </mxGeometry>
        </mxCell>
        <mxCell id="eH2wP4lTHA7Jf0H31MhD-4" value="&lt;font style=&quot;font-size: 24px&quot;&gt;Party&lt;/font&gt;" style="rounded=1;whiteSpace=wrap;html=1;strokeWidth=3;" vertex="1" parent="1">
          <mxGeometry x="210" y="210" width="190" height="90" as="geometry" />
        </mxCell>
        <mxCell id="eH2wP4lTHA7Jf0H31MhD-5" value="&lt;font style=&quot;font-size: 24px&quot;&gt;Player&lt;/font&gt;" style="rounded=1;whiteSpace=wrap;html=1;strokeWidth=3;" vertex="1" parent="1">
          <mxGeometry x="210" y="10" width="190" height="90" as="geometry" />
        </mxCell>
        <mxCell id="eH2wP4lTHA7Jf0H31MhD-6" value="&lt;font style=&quot;font-size: 24px&quot;&gt;Bot&lt;br&gt;&lt;/font&gt;" style="rounded=1;whiteSpace=wrap;html=1;strokeWidth=3;" vertex="1" parent="1">
          <mxGeometry x="-70" y="350" width="190" height="90" as="geometry" />
        </mxCell>
        <mxCell id="eH2wP4lTHA7Jf0H31MhD-7" value="&lt;font style=&quot;font-size: 24px&quot;&gt;Character&lt;/font&gt;" style="rounded=1;whiteSpace=wrap;html=1;strokeWidth=3;" vertex="1" parent="1">
          <mxGeometry x="470" y="350" width="190" height="90" as="geometry" />
        </mxCell>
      </root>
    </mxGraphModel>
  </diagram>
</mxfile>
